HIERARCHY
ROOT hip
{
  OFFSET 0 0 0
  CHANNELS 6 Xposition Yposition Zposition Zrotation Yrotation Xrotation
  JOINT abdomen
  {
    OFFSET 0 20.6881 -0.73152
    CHANNELS 3 Zrotation Xrotation Yrotation
    JOINT chest
    {
      OFFSET 0 11.7043 -0.48768
      CHANNELS 3 Zrotation Xrotation Yrotation
      JOINT neck
      {
        OFFSET 0 22.1894 -2.19456
        CHANNELS 3 Zrotation Xrotation Yrotation
        JOINT head
        {
          OFFSET -0.24384 7.07133 1.2192
          CHANNELS 3 Zrotation Xrotation Yrotation
          JOINT leftEye
          {
            OFFSET 4.14528 8.04674 8.04672
            CHANNELS 3 Zrotation Xrotation Yrotation
            End Site
            {
              OFFSET 1 0 0
            }
          }
          JOINT rightEye
          {
            OFFSET -3.6576 8.04674 8.04672
            CHANNELS 3 Zrotation Xrotation Yrotation
            End Site
            {
              OFFSET 1 0 0
            }
          }
        }
      }
      JOINT rCollar
      {
        OFFSET -2.68224 19.2634 -4.8768
        CHANNELS 3 Zrotation Xrotation Yrotation
        JOINT rShldr
        {
          OFFSET -8.77824 -1.95073 1.46304
          CHANNELS 3 Zrotation Xrotation Yrotation
          JOINT rForeArm
          {
            OFFSET -28.1742 -1.7115 0.48768
            CHANNELS 3 Zrotation Xrotation Yrotation
            JOINT rHand
            {
              OFFSET -22.5879 0.773209 7.07136
              CHANNELS 3 Zrotation Xrotation Yrotation
              JOINT rThumb1
              {
                OFFSET -1.2192 -0.487915 3.41376
                CHANNELS 3 Zrotation Xrotation Yrotation
                JOINT rThumb2
                {
                  OFFSET -3.37035 -0.52449 3.41376
                  CHANNELS 3 Zrotation Xrotation Yrotation
                  End Site
                  {
                    OFFSET -1.78271 -1.18214 1.43049
                  }
                }
              }
              JOINT rIndex1
              {
                OFFSET -7.75947 0.938293 5.60832
                CHANNELS 3 Zrotation Xrotation Yrotation
                JOINT rIndex2
                {
                  OFFSET -2.54057 -0.884171 1.56538
                  CHANNELS 3 Zrotation Xrotation Yrotation
                  End Site
                  {
                    OFFSET -1.62519 -0.234802 1.16502
                  }
                }
              }
              JOINT rMid1
              {
                OFFSET -8.24714 1.18213 3.41376
                CHANNELS 3 Zrotation Xrotation Yrotation
                JOINT rMid2
                {
                  OFFSET -3.10165 -0.590103 1.0647
                  CHANNELS 3 Zrotation Xrotation Yrotation
                  End Site
                  {
                    OFFSET -2.48547 -0.328903 0.83742
                  }
                }
              }
              JOINT rRing1
              {
                OFFSET -8.82822 0.546677 1.51678
                CHANNELS 3 Zrotation Xrotation Yrotation
                JOINT rRing2
                {
                  OFFSET -2.60934 -0.819778 -0.0198488
                  CHANNELS 3 Zrotation Xrotation Yrotation
                  End Site
                  {
                    OFFSET -2.33842 -0.294052 0.168128
                  }
                }
              }
              JOINT rPinky1
              {
                OFFSET -8.27202 -0.0477905 -0.4584
                CHANNELS 3 Zrotation Xrotation Yrotation
                JOINT rPinky2
                {
                  OFFSET -1.82734 -0.647385 -0.700984
                  CHANNELS 3 Zrotation Xrotation Yrotation
                  End Site
                  {
                    OFFSET -1.69225 -0.51767 -0.607171
                  }
                }
              }
            }
          }
        }
      }
      JOINT lCollar
      {
        OFFSET 2.68224 19.2634 -4.8768
        CHANNELS 3 Zrotation Xrotation Yrotation
        JOINT lShldr
        {
          OFFSET 8.77824 -1.95073 1.46304
          CHANNELS 3 Zrotation Xrotation Yrotation
          JOINT lForeArm
          {
            OFFSET 28.1742 -1.7115 0.48768
            CHANNELS 3 Zrotation Xrotation Yrotation
            JOINT lHand
            {
              OFFSET 22.5879 0.773209 7.07136
              CHANNELS 3 Zrotation Xrotation Yrotation
              JOINT lThumb1
              {
                OFFSET 1.2192 -0.487915 3.41376
                CHANNELS 3 Zrotation Xrotation Yrotation
                JOINT lThumb2
                {
                  OFFSET 3.37035 -0.52449 3.41376
                  CHANNELS 3 Zrotation Xrotation Yrotation
                  End Site
                  {
                    OFFSET 1.78271 -1.18214 1.43049
                  }
                }
              }
              JOINT lIndex1
              {
                OFFSET 7.75947 0.938293 5.60832
                CHANNELS 3 Zrotation Xrotation Yrotation
                JOINT lIndex2
                {
                  OFFSET 2.54057 -0.884171 1.56538
                  CHANNELS 3 Zrotation Xrotation Yrotation
                  End Site
                  {
                    OFFSET 1.62519 -0.234802 1.16502
                  }
                }
              }
              JOINT lMid1
              {
                OFFSET 8.24714 1.18213 3.41376
                CHANNELS 3 Zrotation Xrotation Yrotation
                JOINT lMid2
                {
                  OFFSET 3.10165 -0.590103 1.0647
                  CHANNELS 3 Zrotation Xrotation Yrotation
                  End Site
                  {
                    OFFSET 2.48547 -0.328903 0.83742
                  }
                }
              }
              JOINT lRing1
              {
                OFFSET 8.82822 0.546677 1.51678
                CHANNELS 3 Zrotation Xrotation Yrotation
                JOINT lRing2
                {
                  OFFSET 2.60934 -0.819778 -0.0198488
                  CHANNELS 3 Zrotation Xrotation Yrotation
                  End Site
                  {
                    OFFSET 2.33842 -0.294052 0.168128
                  }
                }
              }
              JOINT lPinky1
              {
                OFFSET 8.27202 -0.0477905 -0.4584
                CHANNELS 3 Zrotation Xrotation Yrotation
                JOINT lPinky2
                {
                  OFFSET 1.82734 -0.647385 -0.700984
                  CHANNELS 3 Zrotation Xrotation Yrotation
                  End Site
                  {
                    OFFSET 1.69225 -0.51767 -0.607171
                  }
                }
              }
            }
          }
        }
      }
    }
  }
  JOINT rButtock
  {
    OFFSET -8.77824 4.35084 1.2192
    CHANNELS 3 Zrotation Xrotation Yrotation
    JOINT rThigh
    {
      OFFSET 0 -1.70687 -2.19456
      CHANNELS 3 Zrotation Xrotation Yrotation
      JOINT rShin
      {
        OFFSET 0 -36.8199 0.73152
        CHANNELS 3 Zrotation Xrotation Yrotation
        JOINT rFoot
        {
          OFFSET 0.73152 -45.1104 -5.12064
          CHANNELS 3 Zrotation Xrotation Yrotation
          End Site
          {
            OFFSET -1.1221 -3.69964 12.103
          }
        }
      }
    }
  }
  JOINT lButtock
  {
    OFFSET 8.77824 4.35084 1.2192
    CHANNELS 3 Zrotation Xrotation Yrotation
    JOINT lThigh
    {
      OFFSET 0 -1.70687 -2.19456
      CHANNELS 3 Zrotation Xrotation Yrotation
      JOINT lShin
      {
        OFFSET 0 -36.8199 0.73152
        CHANNELS 3 Zrotation Xrotation Yrotation
        JOINT lFoot
        {
          OFFSET -0.73152 -45.1104 -5.12064
          CHANNELS 3 Zrotation Xrotation Yrotation
          End Site
          {
            OFFSET 1.1221 -3.69964 12.103
          }
        }
      }
    }
  }
}
MOTION
Frames:	9
Frame Time:	0.00833333
2.46056 83.6554 7.10675 0.0 0.0 0.0 -2.30016 -0.000942048 -0.0623528 -0.634479 0.00830844 -0.109827 1.75807e-14 0.0 4.72114e-16 5.3178e-14 3.18055e-15 1.29055e-15 -0.0 0.0 0.0 -0.0 0.0 0.0 8.64576e-15 -5.78494e-17 2.98177e-16 1.85708e-13 -9.87711e-16 6.55989e-15 3.13459e-12 -9.84779e-13 7.95139e-14 3.60384e-11 7.47455e-13 9.85972e-13 8.4988e-11 -5.16375e-13 2.31544e-12 1.46759e-10 -8.90555e-13 3.99557e-12 8.49948e-11 -5.1366e-13 2.3059e-12 7.73091 5.47488 0.417314 8.49881e-11 -5.16641e-13 2.31862e-12 2.90554 0.965183 0.102902 8.49942e-11 -5.16443e-13 2.31544e-12 10.2786 0.731801 0.0259123 8.49828e-11 -5.16045e-13 2.3218e-12 2.22167 -0.733487 -0.20892 8.64909e-15 -5.97907e-17 9.93923e-17 1.80555e-13 -1.36043e-15 4.57205e-15 3.15635e-12 9.0288e-13 6.36111e-14 3.60259e-11 -1.15166e-12 1.00187e-12 8.50062e-11 -5.38049e-13 2.31226e-12 1.46817e-10 -9.25541e-13 3.99001e-12 8.49995e-11 -5.39502e-13 2.31226e-12 -7.73091 5.47488 -0.417314 8.50055e-11 -5.37911e-13 2.30908e-12 -2.90554 0.965183 -0.102902 8.49965e-11 -5.38011e-13 2.31226e-12 -10.2786 0.731801 -0.0259123 8.50119e-11 -5.38309e-13 2.29954e-12 -2.22167 -0.733487 0.20892 -2.03217e-16 0.0 -3.88251e-19 -1.28271 -1.92859 0.00418732 -0.00872932 -2.07863 -0.0717832 -0.462941 3.99877 0.133064 2.03217e-16 0.0 3.88251e-19 -2.21844 -7.92848 0.228511 -0.00571396 8.7892 -0.144989 0.509464 -0.869093 -0.039911
2.13563 83.2853 6.78038 -1.5833 1.7723 0.384 -2.83495 1.9024 0.178491 -0.52743 -1.33141 -0.0787173 -3.19357 1.31827 -1.91877 5.02307 -0.472073 -3.12031 -0.0 0.0 0.0 -0.0 0.0 0.0 1.29525e-14 -1.48046e-14 -7.44783e-15 22.3102 5.856 -3.32716 -4.48218 -2.09161 6.94005 0.00262126 1.14544 0.160869 -4.38928e-11 4.15554e-11 1.51215e-11 -7.59695e-11 7.19929e-11 2.67224e-11 -4.38896e-11 4.15591e-11 1.511e-11 7.73091 5.47488 0.417314 -4.38941e-11 4.15564e-11 1.51245e-11 2.90554 0.965183 0.102902 -4.38873e-11 4.15564e-11 1.51223e-11 10.2786 0.731801 0.0259123 -4.38983e-11 4.1558e-11 1.51296e-11 2.22167 -0.733487 -0.20892 1.28888e-14 -1.48011e-14 -7.64428e-15 -20.6378 6.42097 3.27115 5.59762 -2.89516 -8.32722 -0.011295 -2.35857 0.330462 4.58606e-11 5.87364e-12 -4.76631e-11 7.96968e-11 1.08808e-11 -8.25287e-11 4.5854e-11 5.87283e-12 -4.76594e-11 -7.73091 5.47488 -0.417314 4.586e-11 5.87336e-12 -4.76655e-11 -2.90554 0.965183 -0.102902 4.58525e-11 5.87357e-12 -4.76632e-11 -10.2786 0.731801 -0.0259123 4.5866e-11 5.87404e-12 -4.76752e-11 -2.22167 -0.733487 0.20892 -2.03217e-16 0.0 -3.88251e-19 -1.62176 -1.59712 3.3188 -0.0104723 1.11645 -0.000297431 -0.722999 1.6334 -4.22189 2.03217e-16 0.0 3.88251e-19 -1.05421 -7.09235 -2.74996 0.000200162 10.4731 -0.16702 0.576405 -2.73961 2.22688
2.11674 83.2822 6.77661 -1.6625 1.7436 0.4042 -3.41451 3.9153 0.435689 -0.415088 -2.74915 -0.0453279 -6.47321 2.71384 -3.95341 10.2795 -0.978004 -6.42494 -0.0 0.0 0.0 -0.0 0.0 0.0 1.68732e-14 -3.10418e-14 -1.60177e-14 46.6508 11.9815 -6.96182 -8.67412 -4.20064 14.3066 -0.00161527 2.33911 0.328731 -1.73906e-10 8.38195e-11 4.20861e-11 -3.00591e-10 1.4522e-10 7.39539e-11 -1.73907e-10 8.38243e-11 4.20724e-11 7.73091 5.47488 0.417314 -1.73909e-10 8.3822e-11 4.20887e-11 2.90554 0.965183 0.102902 -1.73901e-10 8.38218e-11 4.20877e-11 10.2786 0.731801 0.0259123 -1.73912e-10 8.38246e-11 4.2096e-11 2.22167 -0.733487 -0.20892 1.67349e-14 -3.1032e-14 -1.62103e-14 -43.265 13.1398 6.8671 10.6124 -5.75411 -17.2014 0.00646747 -4.85859 0.682649 1.62341e-11 2.28056e-11 -1.05526e-10 2.9086e-11 4.0986e-11 -1.82656e-10 1.62277e-11 2.28056e-11 -1.05518e-10 -7.73091 5.47488 -0.417314 1.62336e-11 2.28049e-11 -1.05527e-10 -2.90554 0.965183 -0.102902 1.62278e-11 2.28054e-11 -1.05526e-10 -10.2786 0.731801 -0.0259123 1.62393e-11 2.28068e-11 -1.05537e-10 -2.22167 -0.733487 0.20892 -2.03217e-16 0.0 -3.88251e-19 -2.01728 -1.24017 6.82162 -0.0209543 4.49046 0.0753663 -1.38711 -0.846405 -8.82328 2.03217e-16 0.0 3.88251e-19 0.275642 -6.1944 -5.88816 0.00791123 12.259 -0.190802 0.809048 -4.70893 4.63377
2.1058 83.2792 6.77231 -1.702 1.7161 0.4282 -3.95273 5.70874 0.663171 -0.308965 -4.01086 -0.0164736 -9.31579 3.93704 -5.76845 14.9157 -1.39943 -9.36343 -0.0 0.0 0.0 -0.0 0.0 0.0 2.15658e-14 -4.42982e-14 -2.29398e-14 69.0416 17.3255 -10.4064 -11.9569 -5.90737 20.9225 -0.0114618 3.43621 0.483378 -3.01654e-10 1.25699e-10 4.07337e-11 -5.21427e-10 2.1776e-10 7.2176e-11 -3.01658e-10 1.25705e-10 4.07182e-11 7.73091 5.47488 0.417314 -3.01659e-10 1.25703e-10 4.07362e-11 2.90554 0.965183 0.102902 -3.0165e-10 1.25702e-10 4.07361e-11 10.2786 0.731801 0.0259123 -3.01661e-10 1.25706e-10 4.07453e-11 2.22167 -0.733487 -0.20892 2.13683e-14 -4.42836e-14 -2.31316e-14 -64.2081 19.0045 10.32 14.3369 -7.95313 -25.2087 0.0482641 -7.07475 0.998146 -3.24306e-11 1.8697e-11 -1.47614e-10 -5.45441e-11 3.44935e-11 -2.55566e-10 -3.24371e-11 1.86975e-11 -1.47603e-10 -7.73091 5.47488 -0.417314 -3.24311e-11 1.86959e-11 -1.47615e-10 -2.90554 0.965183 -0.102902 -3.24355e-11 1.86967e-11 -1.47614e-10 -10.2786 0.731801 -0.0259123 -3.24257e-11 1.86987e-11 -1.47625e-10 -2.22167 -0.733487 0.20892 -2.03217e-16 0.0 -3.88251e-19 -2.41467 -0.928068 9.94547 -0.0379707 7.50659 0.143812 -2.31386 -3.00582 -12.9441 2.03217e-16 0.0 3.88251e-19 1.53645 -5.38229 -8.67793 0.0160461 13.8409 -0.212305 1.15559 -6.44164 6.79592
2.11145 83.2759 6.76555 -1.6591 1.6874 0.4632 -4.35293 6.9539 0.813399 -0.221592 -4.88252 0.000968151 -11.2555 4.74659 -7.0226 18.1159 -1.62666 -11.3839 -0.0 0.0 0.0 -0.0 0.0 0.0 2.81882e-14 -5.01027e-14 -2.57426e-14 85.0412 20.9468 -12.9705 -14.0051 -6.95857 25.5643 -0.0226458 4.29194 0.604335 -4.23742e-10 1.66617e-10 -3.14112e-11 -7.32798e-10 2.88581e-10 -5.21253e-11 -4.23747e-10 1.66622e-10 -3.14271e-11 7.73091 5.47488 0.417314 -4.23747e-10 1.6662e-10 -3.1408e-11 2.90554 0.965183 0.102902 -4.23738e-10 1.6662e-10 -3.1408e-11 10.2786 0.731801 0.0259123 -4.23749e-10 1.66624e-10 -3.13984e-11 2.22167 -0.733487 -0.20892 2.79703e-14 -5.00871e-14 -2.59414e-14 -79.2868 22.9797 12.9329 16.5448 -9.20349 -30.8315 0.0911959 -8.58221 1.21534 -1.28691e-10 -3.80132e-11 -1.50265e-10 -2.20722e-10 -6.34934e-11 -2.60433e-10 -1.28698e-10 -3.80128e-11 -1.50253e-10 -7.73091 5.47488 -0.417314 -1.28691e-10 -3.80145e-11 -1.50265e-10 -2.90554 0.965183 -0.102902 -1.28695e-10 -3.80135e-11 -1.50265e-10 -10.2786 0.731801 -0.0259123 -1.28686e-10 -3.80112e-11 -1.50275e-10 -2.22167 -0.733487 0.20892 -2.03217e-16 0.0 -3.88251e-19 -2.73386 -0.728834 12.1234 -0.0544383 9.628 0.192771 -3.14543 -4.46887 -15.8329 2.03217e-16 0.0 3.88251e-19 2.44031 -4.80498 -10.6152 0.0223313 14.9124 -0.227169 1.47106 -7.61915 8.31385
2.13362 83.2736 6.75855 -1.5337 1.6531 0.4998 -4.55426 7.4245 0.850395 -0.157579 -5.20195 0.00166143 -12.0249 4.97815 -7.48252 19.3639 -1.57543 -12.1146 -0.0 0.0 0.0 -0.0 0.0 0.0 3.96272e-14 -4.46911e-14 -2.2663e-14 91.3591 22.3214 -14.0047 -14.7569 -7.33351 27.3894 -0.0304462 4.84313 0.682381 -5.6809e-10 2.19098e-10 -2.48914e-10 -9.83345e-10 3.79351e-10 -4.27849e-10 -5.68093e-10 2.19102e-10 -2.48929e-10 7.73091 5.47488 0.417314 -5.68094e-10 2.191e-10 -2.48909e-10 2.90554 0.965183 0.102902 -5.68086e-10 2.19099e-10 -2.4891e-10 10.2786 0.731801 0.0259123 -5.68097e-10 2.19103e-10 -2.48901e-10 2.22167 -0.733487 -0.20892 3.94505e-14 -4.4681e-14 -2.28866e-14 -85.3522 24.4878 14.0183 17.3148 -9.60349 -33.0036 0.109305 -9.09736 1.29023 -3.25465e-10 -1.92955e-10 -8.53571e-11 -5.61044e-10 -3.32226e-10 -1.48794e-10 -3.25475e-10 -1.92956e-10 -8.53455e-11 -7.73091 5.47488 -0.417314 -3.25465e-10 -1.92956e-10 -8.53561e-11 -2.90554 0.965183 -0.102902 -3.2547e-10 -1.92955e-10 -8.53559e-11 -10.2786 0.731801 -0.0259123 -3.25461e-10 -1.92953e-10 -8.53643e-11 -2.22167 -0.733487 0.20892 -2.03217e-16 0.0 -3.88251e-19 -2.91622 -0.693858 12.9748 -0.062606 10.5074 0.213378 -3.51607 -5.04474 -16.9618 2.03217e-16 0.0 3.88251e-19 2.75422 -4.55615 -11.3634 0.0246606 15.258 -0.232118 1.60132 -8.03985 8.90828
2.16028 83.2734 6.75488 -1.4104 1.6694 0.515 -4.60986 7.34224 0.806089 -0.110703 -5.12723 -0.00959543 -11.9755 4.80055 -7.37315 19.224 -1.3285 -11.9241 -0.0 0.0 0.0 -0.0 0.0 0.0 5.4406e-14 -3.13054e-14 -1.53872e-14 90.5825 22.1425 -13.8607 -14.6758 -7.29384 27.1888 -0.0344112 5.17523 0.72941 -7.269e-10 2.79224e-10 -5.68043e-10 -1.25938e-09 4.83305e-10 -9.79357e-10 -7.269e-10 2.79225e-10 -5.68055e-10 7.73091 5.47488 0.417314 -7.26903e-10 2.79223e-10 -5.68034e-10 2.90554 0.965183 0.102902 -7.26896e-10 2.79222e-10 -5.68038e-10 10.2786 0.731801 0.0259123 -7.26908e-10 2.79226e-10 -5.6803e-10 2.22167 -0.733487 -0.20892 5.43142e-14 -3.13053e-14 -1.56481e-14 -84.7755 24.29 13.9066 17.1982 -9.52914 -32.6869 0.103971 -8.90392 1.26224 -5.92422e-10 -4.16892e-10 2.722e-11 -1.02296e-09 -7.20888e-10 4.50501e-11 -5.92434e-10 -4.16894e-10 2.72285e-11 -7.73091 5.47488 -0.417314 -5.92421e-10 -4.16893e-10 2.7222e-11 -2.90554 0.965183 -0.102902 -5.92428e-10 -4.16892e-10 2.72229e-11 -10.2786 0.731801 -0.0259123 -5.92417e-10 -4.16891e-10 2.72158e-11 -2.22167 -0.733487 0.20892 -2.03217e-16 0.0 -3.88251e-19 -2.99312 -0.77485 12.8788 -0.0629714 10.4993 0.213297 -3.48193 -5.0129 -16.8234 2.03217e-16 0.0 3.88251e-19 2.62782 -4.54153 -11.2635 0.0238855 15.0858 -0.229881 1.56743 -7.92717 8.83735
2.15869 83.2733 6.75338 -1.4114 1.6589 0.523 -4.59196 7.0504 0.734091 -0.0774495 -4.90468 -0.0245224 -11.5799 4.47617 -7.03788 18.5083 -1.03105 -11.3702 -0.0 0.0 0.0 -0.0 0.0 0.0 6.71365e-14 -1.59832e-14 -6.61735e-15 86.9816 21.3496 -13.2554 -14.2587 -7.08594 26.1721 -0.0359426 5.36641 0.756458 -8.43199e-10 3.21752e-10 -8.53823e-10 -1.46173e-09 5.56766e-10 -1.47335e-09 -8.43194e-10 3.2175e-10 -8.53832e-10 7.73091 5.47488 0.417314 -8.43201e-10 3.21748e-10 -8.53812e-10 2.90554 0.965183 0.102902 -8.43195e-10 3.21747e-10 -8.53817e-10 10.2786 0.731801 0.0259123 -8.43208e-10 3.2175e-10 -8.5381e-10 2.22167 -0.733487 -0.20892 6.71354e-14 -1.59934e-14 -6.90932e-15 -81.5324 23.4175 13.3145 16.7227 -9.26114 -31.3729 0.0899137 -8.42824 1.19342 -8.33244e-10 -6.29083e-10 1.39107e-10 -1.4398e-09 -1.08928e-09 2.37786e-10 -8.33259e-10 -6.29087e-10 1.39112e-10 -7.73091 5.47488 -0.417314 -8.33242e-10 -6.29083e-10 1.3911e-10 -2.90554 0.965183 -0.102902 -8.33251e-10 -6.29083e-10 1.39112e-10 -10.2786 0.731801 -0.0259123 -8.33239e-10 -6.29083e-10 1.39106e-10 -2.22167 -0.733487 0.20892 -2.03217e-16 0.0 -3.88251e-19 -3.01508 -0.887999 12.4079 -0.0599472 10.1191 0.204545 -3.28478 -4.73439 -16.1813 2.03217e-16 0.0 3.88251e-19 2.33857 -4.62482 -10.8275 0.0219857 14.7246 -0.225014 1.47115 -7.60778 8.50132
2.15753 83.2725 6.74999 -1.4111 1.6509 0.5415 -4.57193 6.89229 0.687896 -0.0544881 -4.78061 -0.0348558 -11.314 4.2679 -6.8195 18.0387 -0.830313 -11.01 -0.0 0.0 0.0 -0.0 0.0 0.0 7.24308e-14 -4.76229e-15 9.44227e-16 84.8315 20.8808 -12.9084 -13.998 -6.95277 25.5499 -0.0371745 5.49483 0.774648 -8.60012e-10 3.2144e-10 -9.71281e-10 -1.49121e-09 5.5606e-10 -1.67655e-09 -8.60004e-10 3.21436e-10 -9.71287e-10 7.73091 5.47488 0.417314 -8.60013e-10 3.21434e-10 -9.71268e-10 2.90554 0.965183 0.102902 -8.60008e-10 3.21434e-10 -9.71275e-10 10.2786 0.731801 0.0259123 -8.6002e-10 3.21435e-10 -9.71268e-10 2.22167 -0.733487 -0.20892 7.24881e-14 -4.7786e-15 6.4605e-16 -79.6075 22.899 12.9625 16.4148 -9.07831 -30.5531 0.0810841 -8.09669 1.14563 -9.51615e-10 -7.48788e-10 2.01946e-10 -1.64488e-09 -1.29719e-09 3.461e-10 -9.51631e-10 -7.48794e-10 2.01949e-10 -7.73091 5.47488 -0.417314 -9.51613e-10 -7.48789e-10 2.01949e-10 -2.90554 0.965183 -0.102902 -9.51623e-10 -7.48788e-10 2.01951e-10 -10.2786 0.731801 -0.0259123 -9.5161e-10 -7.48788e-10 2.01946e-10 -2.22167 -0.733487 0.20892 -2.03217e-16 0.0 -3.88251e-19 -3.03001 -0.948874 12.1348 -0.0581814 9.88255 0.199198 -3.17096 -4.56872 -15.8 2.03217e-16 0.0 3.88251e-19 2.16604 -4.67007 -10.5672 0.0208769 14.5037 -0.222044 1.41385 -7.40827 8.30028
